<svg width="41" height="39" viewBox="0 0 41 39" fill="none" xmlns="http://www.w3.org/2000/svg">
<path d="M2.28534 22.5757H14.1948L17.0229 11.9248L21.1614 29.685L23.6392 17.5941L25.8707 22.5757H39.0773" stroke="#007CC2" stroke-width="2.0614" stroke-miterlimit="10" stroke-linecap="round" stroke-linejoin="round"/>
<path d="M4.37404 18.8002C2.8432 16.958 2 14.6359 2 12.2359C2 6.59253 6.56653 2 12.1839 2C15.5699 2 18.7354 3.66058 20.6814 6.22927C22.6274 3.66058 25.7928 2 29.1788 2C34.7962 2 39.3627 6.59253 39.3627 12.2359C39.3627 14.6359 38.5195 16.958 36.9886 18.8002" stroke="#007CC2" stroke-width="2.0614" stroke-miterlimit="10" stroke-linecap="round" stroke-linejoin="round"/>
<path d="M10.0563 25.5205L19.2154 36.405C19.89 37.1964 21.0965 37.1962 21.7711 36.4179L31.1896 25.5205" stroke="#007CC2" stroke-width="2.0614" stroke-miterlimit="10" stroke-linecap="round" stroke-linejoin="round"/>
</svg>
