<svg width="34" height="40" viewBox="0 0 34 40" fill="none" xmlns="http://www.w3.org/2000/svg">
<path d="M31.5201 8.03273C31.5061 8.03273 30.5707 8.28515 29.1326 8.28515C26.089 8.28515 21.6771 7.19687 17.9494 2.03388C17.5166 1.43662 16.4834 1.43662 16.0506 2.03388C11.555 8.27193 5.23035 8.9223 2.47992 8.01977C1.73996 7.80741 1 8.33806 1 9.09459V19.5933C1 34.2461 16.5393 38.5066 16.6929 38.5464C16.7906 38.5729 16.8883 38.5859 17 38.5859C17.0977 38.5859 17.2095 38.5729 17.3072 38.5464C17.4608 38.5066 33 34.2461 33 19.5933V9.09459C33 8.37788 32.274 7.83365 31.5201 8.03273Z" stroke="#007CC2" stroke-width="1.39616" stroke-miterlimit="10" stroke-linecap="round" stroke-linejoin="round"/>
<path d="M10.7731 20.9269L15.2015 26.1917L24.7346 14.8584" stroke="#007CC2" stroke-width="1.05689" stroke-miterlimit="10" stroke-linecap="round" stroke-linejoin="round"/>
</svg>
