<svg width="14" height="14" viewBox="0 0 14 14" fill="none" xmlns="http://www.w3.org/2000/svg">
<g clip-path="url(#clip0)">
<path d="M2.8605 10.7741V10.5438L2.67725 10.4044C1.31957 9.37118 0.464602 7.8084 0.464602 6.06886C0.464602 3.00351 3.13786 0.464602 6.50442 0.464602C9.87121 0.464602 12.5442 3.00349 12.5442 6.06886C12.5442 9.13401 9.8712 11.6731 6.50442 11.6731C5.8781 11.6731 5.27456 11.5847 4.70755 11.4212L4.51945 11.367L4.34926 11.4638L2.8605 12.3102V10.7741Z" fill="white" stroke="white" stroke-width="0.929204"/>
<path d="M5.81084 4.40625L2.30304 8.12028L5.49543 6.36873L7.16341 8.12028L10.6514 4.40625L7.49444 6.12714L5.81084 4.40625Z" fill="#002B5C"/>
</g>
<defs>
<clipPath id="clip0">
<rect width="13.0088" height="13.125" fill="white"/>
</clipPath>
</defs>
</svg>
