<svg width="7" height="13" viewBox="0 0 7 13" fill="none" xmlns="http://www.w3.org/2000/svg">
<g clip-path="url(#clip0)">
<path d="M6.42482 0.857422H4.81862C3.01967 0.857422 1.85035 1.98902 1.85035 3.74117V5.06745H0.256993C0.115647 5.06745 0 5.17696 0 5.31081V7.23331C0 7.36716 0.115647 7.47666 0.256993 7.47666H1.8632V12.3316C1.8632 12.4654 1.97885 12.5749 2.12019 12.5749H4.22753C4.36888 12.5749 4.48453 12.4654 4.48453 12.3316V7.4645H6.37343C6.51477 7.4645 6.63042 7.35499 6.63042 7.22114V5.29864C6.63042 5.2378 6.60472 5.17696 6.55332 5.12829C6.50192 5.07962 6.43767 5.05529 6.37343 5.05529H4.47168V3.93586C4.47168 3.40048 4.61302 3.12062 5.34545 3.12062H6.42482C6.56617 3.12062 6.68182 3.01111 6.68182 2.87726V1.10078C6.68182 0.966931 6.56617 0.857422 6.42482 0.857422Z" fill="white"/>
</g>
<defs>
<clipPath id="clip0">
<rect width="6.68182" height="11.6932" fill="white" transform="translate(0 0.857422)"/>
</clipPath>
</defs>
</svg>
