<svg width="18" height="15" viewBox="0 0 18 15" fill="none" xmlns="http://www.w3.org/2000/svg">
<path d="M16.2146 7.36621C17.7713 8.31523 17.7655 11.5905 15.3872 12.0245V13.2224C15.3872 13.5291 15.1384 13.7837 14.8259 13.7837H4.79744C4.49074 13.7837 4.23615 13.5349 4.23615 13.2224V12.7999" stroke="white" stroke-width="0.578672" stroke-linecap="round" stroke-linejoin="round"/>
<path d="M12.7661 2.52787L12.4768 1.40525C12.4015 1.11591 12.1064 0.942321 11.8171 1.01755L2.40207 3.44219C2.11273 3.51741 1.93918 3.81254 2.01441 4.10188L2.30374 5.22451C0.000627041 6.26033 0.966978 10.0911 3.50156 9.8886L3.7909 11.0112C3.86613 11.3006 4.16126 11.4742 4.45059 11.3989L13.8656 8.97429C14.1549 8.89906 14.3285 8.60393 14.2533 8.31459L13.9639 7.19197C16.2497 6.133 15.2718 2.3427 12.7661 2.52787Z" fill="white" stroke="white" stroke-width="0.578672" stroke-linecap="round" stroke-linejoin="round"/>
<path d="M9.84407 6.23286C10.2054 6.11234 11.0602 5.8768 10.9386 5.40028C10.8207 4.93807 10.0122 5.11604 9.57897 5.19391C6.99165 3.39476 6.92197 3.27531 6.66223 3.34158L6.40249 3.40786L8.22384 5.60287L6.61235 6.14258L5.78908 5.59677L5.2921 5.72358L6.20428 6.5495L5.82592 7.8071L6.3229 7.68029L6.784 6.80674L8.45707 6.50836L7.91323 9.31995L8.17297 9.25368C8.43118 9.18997 8.43259 9.0589 9.84407 6.23286Z" fill="#0B2343" stroke="#0B2343" stroke-width="0.212252" stroke-miterlimit="10" stroke-linecap="round" stroke-linejoin="round"/>
</svg>
