<svg width="17" height="13" viewBox="0 0 17 13" fill="none" xmlns="http://www.w3.org/2000/svg">
<path d="M9.58395 7.25172L6.01814 8.80701L1 6.28711" stroke="white" stroke-width="0.5" stroke-miterlimit="10" stroke-linecap="round" stroke-linejoin="round"/>
<path d="M16.5856 4.41211L13.4045 5.73438" stroke="white" stroke-width="0.5" stroke-miterlimit="10" stroke-linecap="round" stroke-linejoin="round"/>
<path d="M13.4045 4.18969L16.5856 2.78613" stroke="white" stroke-width="0.5" stroke-miterlimit="10" stroke-linecap="round" stroke-linejoin="round"/>
<path d="M1 4.65625L6.01814 7.17617L9.58395 5.61003" stroke="white" stroke-width="0.5" stroke-miterlimit="10" stroke-linecap="round" stroke-linejoin="round"/>
<path d="M9.58395 8.93151L6.01814 10.476L1 7.95605" stroke="white" stroke-width="0.5" stroke-miterlimit="10" stroke-linecap="round" stroke-linejoin="round"/>
<path d="M16.5856 6.08105L13.4045 7.41416" stroke="white" stroke-width="0.5" stroke-miterlimit="10" stroke-linecap="round" stroke-linejoin="round"/>
<path fill-rule="evenodd" clip-rule="evenodd" d="M11.603 0.0262032C11.5378 -0.00622066 11.4618 -0.00866814 11.3947 0.0194995L8.21226 1.35595C8.1985 1.36037 8.18513 1.36598 8.1723 1.37273L4.64551 2.85376C4.6361 2.85707 4.62688 2.86094 4.61791 2.86535L0.903269 4.42527C0.775967 4.47873 0.716105 4.62527 0.769564 4.75257C0.823023 4.87987 0.969559 4.93973 1.09686 4.88627L4.71777 3.36571L9.33403 5.76142V10.4302L6.028 11.8052L1.11225 9.33668C0.988866 9.27472 0.838612 9.32452 0.776651 9.44791C0.714691 9.5713 0.764488 9.72155 0.887876 9.78351L5.90602 12.3034C5.97103 12.3361 6.04704 12.3388 6.11421 12.3108L16.6816 7.91589C16.809 7.86287 16.8694 7.71654 16.8164 7.58906C16.7634 7.46157 16.617 7.40121 16.4895 7.45423L13.6545 8.63332V4.18971C13.6545 4.09555 13.6016 4.00938 13.5176 3.96677L8.8846 1.6159L11.4827 0.524865L16.4741 3.00997C16.5977 3.07151 16.7478 3.0212 16.8093 2.8976C16.8709 2.774 16.8206 2.62392 16.697 2.56238L11.603 0.0262032ZM8.28 1.8698L5.31775 3.11376L9.69919 5.3876C9.78203 5.4306 9.83403 5.51616 9.83403 5.6095V10.2222L13.1545 8.84127V4.3432L8.28 1.8698Z" fill="white"/>
<path d="M9.50012 5.75L5.00012 3.25L8.50012 1.75L13.5001 4.25V8.75L9.50012 10.75V5.75Z" fill="white"/>
</svg>
