<svg width="21" height="21" viewBox="0 0 21 21" fill="none" xmlns="http://www.w3.org/2000/svg">
<path d="M10.9135 11.6879C10.9135 12.1183 10.5066 12.7155 10.0122 12.7155C9.51784 12.7155 9.11108 12.1183 9.11108 11.6879C9.11108 11.2575 9.51784 10.9131 10.0122 10.9131C10.5066 10.9131 10.9135 11.2629 10.9135 11.6879Z" stroke="white" stroke-width="0.7" stroke-miterlimit="10" stroke-linecap="round" stroke-linejoin="round"/>
<path d="M11.8149 16.4716C11.8149 17.5477 11.0103 19.9257 10.0125 19.9257C9.01475 19.9257 8.21011 17.5477 8.21011 16.4716C8.21011 15.3955 9.01475 14.5186 10.0125 14.5186C11.0103 14.5186 11.8149 15.3955 11.8149 16.4716Z" stroke="white" stroke-width="0.7" stroke-miterlimit="10" stroke-linecap="round" stroke-linejoin="round"/>
<path d="M17.2598 19.925V15.003H19.9246L17.855 10.5194L18.2608 8.61484C18.3757 5.42732 18.0985 5.61064 18.0444 5.56482C17.9024 5.52555 17.7468 5.50586 17.5844 5.50586L16.3197 6.71024L15.055 5.50586C14.8927 5.50586 14.744 5.52555 14.5952 5.56482C14.5411 5.6041 14.257 5.42732 14.3787 8.61484L14.7846 10.5194L12.715 15.003H15.3797V19.925" stroke="white" stroke-width="0.7" stroke-miterlimit="10" stroke-linecap="round" stroke-linejoin="round"/>
<path d="M5.50553 2.16427C5.50553 2.80461 4.89908 3.70359 4.15378 3.70359C3.40848 3.70359 2.80194 2.80461 2.80194 2.16427C2.80194 1.52394 3.40848 1 4.15378 1C4.89908 1.00647 5.50553 1.52394 5.50553 2.16427Z" stroke="white" stroke-width="0.7" stroke-miterlimit="10" stroke-linecap="round" stroke-linejoin="round"/>
<path d="M17.2226 2.16427C17.2226 2.80461 16.8178 3.70359 16.3214 3.70359C15.825 3.70359 15.4202 2.80461 15.4202 2.16427C15.4202 1.52394 15.825 1 16.3214 1C16.8178 1 17.2226 1.51747 17.2226 2.16427Z" stroke="white" stroke-width="0.7" stroke-miterlimit="10" stroke-linecap="round" stroke-linejoin="round"/>
<path d="M1.90761 19.925L1.636 11.9815C1.62937 11.814 1.06616 12.0329 1.05954 11.8719C0.827625 6.04784 1.34438 5.59698 1.39739 5.55189C1.46365 5.53256 2.02691 5.51963 2.19256 5.50675C2.41785 5.49386 2.61666 5.6227 2.71605 5.81597C3.0871 6.49244 4.32616 6.49244 4.69059 5.81597C4.79661 5.6227 4.98871 5.49386 5.21399 5.50675C5.37964 5.51963 5.94291 5.53256 6.00917 5.55189C6.0688 5.59698 6.57901 6.04784 6.3471 11.8719C6.34048 12.0265 5.77727 11.814 5.77064 11.9815L5.45915 19.925" stroke="white" stroke-width="0.7" stroke-miterlimit="10" stroke-linecap="round" stroke-linejoin="round"/>
</svg>
