<svg width="20" height="12" viewBox="0 0 20 12" fill="none" xmlns="http://www.w3.org/2000/svg">
<path d="M18.4781 0C18.767 0 19.0033 0.23907 19.0033 0.527947V11.4687C19.0033 11.7609 18.767 11.9967 18.4781 11.9967H0.525134C0.23631 11.9967 0 11.7576 0 11.4687V0.527947C0 0.23907 0.23631 0 0.525134 0H18.4781Z" fill="#D7282F"/>
<path d="M9.44637 4.37978C12.1639 4.37978 14.4154 5.43235 14.8684 6.81365C14.9209 6.64762 14.9537 6.47828 14.9537 6.30562C14.9537 4.68194 12.4856 3.36705 9.44637 3.36705C6.40059 3.36705 3.93247 4.68194 3.93247 6.30562C3.93247 6.47828 3.96857 6.64762 4.02108 6.81365C4.47073 5.42903 6.72552 4.37978 9.44637 4.37978ZM9.44637 2.62992C12.1639 2.62992 14.4154 3.67917 14.8684 5.06378C14.9209 4.89776 14.9537 4.72842 14.9537 4.55576C14.9537 2.93207 12.4856 1.61719 9.44637 1.61719C6.40059 1.61719 3.93247 2.93207 3.93247 4.55576C3.93247 4.72842 3.96857 4.89776 4.02108 5.06378C4.47073 3.67917 6.72552 2.62992 9.44637 2.62992ZM11.711 9.66589L10.5787 8.2049H10.0404V10.3831H10.5524V8.95532L11.6683 10.3831H12.223V8.2049H11.711V9.66589ZM3.23338 9.93152C3.12836 10.0046 3.00364 10.0444 2.85594 10.0444C2.65574 10.0444 2.49491 9.98465 2.36691 9.87175C2.24219 9.75222 2.18312 9.55631 2.18312 9.28072C2.18312 9.02173 2.24219 8.83578 2.37348 8.71957C2.4982 8.60335 2.6623 8.54691 2.86579 8.54691C3.01677 8.54691 3.1382 8.58011 3.24323 8.6432C3.34497 8.70961 3.4139 8.79594 3.44344 8.90883L3.99483 8.8059C3.93575 8.63324 3.83729 8.4971 3.71257 8.40745C3.50251 8.25139 3.2301 8.1717 2.89205 8.1717C2.50804 8.1717 2.19624 8.27463 1.95993 8.47054C1.72362 8.66976 1.60547 8.952 1.60547 9.31392C1.60547 9.65261 1.72362 9.92156 1.95993 10.1208C2.19296 10.32 2.49491 10.4196 2.85923 10.4196C3.15461 10.4196 3.39749 10.3599 3.58785 10.2436C3.77821 10.1307 3.91934 9.95144 4.00139 9.71569L3.46641 9.58288C3.4139 9.74226 3.33841 9.85847 3.23338 9.93152ZM15.1867 8.20822V8.57679H16.004V10.3864H16.5586V8.57679H17.3693V8.20822H15.1867ZM13.3717 9.4235H14.7502V9.05493H13.3717V8.57347H14.852V8.2049H12.8171V10.3831H14.911V10.0145H13.375V9.4235H13.3717ZM9.08206 9.60612C9.00329 9.54303 8.90483 9.47994 8.78339 9.4235C9.02298 9.39693 9.20678 9.33053 9.32822 9.22095C9.44965 9.11802 9.50873 8.98188 9.50873 8.81918C9.50873 8.68636 9.46934 8.57679 9.38729 8.47718C9.30852 8.37756 9.2035 8.30784 9.06893 8.26799C8.93436 8.22815 8.72103 8.20822 8.42564 8.20822H7.25722V10.3864H7.81517V9.47994H7.93005C8.05477 9.47994 8.14995 9.48659 8.20902 9.50319C8.2681 9.51979 8.3239 9.55299 8.37313 9.59284C8.42892 9.636 8.52739 9.74226 8.66852 9.9116L9.06893 10.3864H9.73191L9.39386 9.95809C9.26257 9.78874 9.16083 9.67253 9.08206 9.60612ZM8.22543 9.12798H7.81517V8.57679H8.24841C8.47159 8.57679 8.60616 8.58011 8.65211 8.58343C8.74072 8.59671 8.80965 8.62328 8.86216 8.66976C8.90811 8.71625 8.93437 8.77269 8.93437 8.84906C8.93437 8.91547 8.91795 8.9686 8.87857 9.01176C8.83918 9.05493 8.78995 9.08814 8.72103 9.10474C8.65867 9.12134 8.49457 9.12798 8.22543 9.12798ZM5.26828 8.20822L4.19832 10.3864H4.78909L5.01884 9.895H6.11834L6.35793 10.3864H6.96511L5.86233 8.20822H5.26828ZM5.18622 9.52311L5.5571 8.71625L5.93454 9.52311H5.18622Z" fill="white"/>
</svg>
