<svg width="20" height="20" viewBox="0 0 20 20" fill="none" xmlns="http://www.w3.org/2000/svg">
<path d="M10.3577 7.29167C8.71305 7.18968 7.38074 5.81916 7.38074 4.14903C7.38074 2.40878 8.78955 1 10.5298 1C12.2701 1 13.6788 2.40878 13.6788 4.14903C13.6788 4.87572 13.4366 5.5833 13.0223 6.11876" stroke="white" stroke-width="0.7" stroke-miterlimit="10" stroke-linecap="round" stroke-linejoin="round"/>
<path d="M15.9613 9.25545C15.9613 10.9957 14.5524 12.4045 12.8122 12.4045C11.0719 12.4045 9.66321 10.9957 9.66321 9.25545C9.66321 7.5152 11.0719 6.10645 12.8122 6.10645C14.5524 6.10645 15.9613 7.52158 15.9613 9.25545Z" stroke="white" stroke-width="0.7" stroke-miterlimit="10" stroke-linecap="round" stroke-linejoin="round"/>
<path d="M11.7031 10.4727C12.0027 10.7341 12.4617 10.9253 12.7932 10.9253C13.3223 10.9253 13.7557 10.5492 13.7557 10.0839C13.7557 9.61854 13.2968 9.38905 12.7932 9.24244C12.2705 9.0767 11.8307 8.86634 11.8307 8.401C11.8307 7.93565 12.2641 7.55957 12.7932 7.55957C13.1502 7.55957 13.4625 7.73167 13.6283 7.98665" stroke="white" stroke-width="0.7" stroke-miterlimit="10" stroke-linecap="round" stroke-linejoin="round"/>
<path d="M12.7935 7.10059V7.55955" stroke="white" stroke-width="0.7" stroke-miterlimit="10" stroke-linecap="round" stroke-linejoin="round"/>
<path d="M12.7935 10.9248V11.3901" stroke="white" stroke-width="0.7" stroke-miterlimit="10" stroke-linecap="round" stroke-linejoin="round"/>
<path d="M9.62396 5.20729C9.87894 5.4304 10.2742 5.59613 10.5611 5.59613C11.0137 5.59613 11.3833 5.27103 11.3833 4.8758C11.3833 4.48058 10.9882 4.28297 10.5611 4.15548C10.1149 4.01524 9.73874 3.83039 9.73874 3.43517C9.73874 3.03995 10.1085 2.71484 10.5611 2.71484C10.8671 2.71484 11.1348 2.86146 11.275 3.0782" stroke="white" stroke-width="0.7" stroke-miterlimit="10" stroke-linecap="round" stroke-linejoin="round"/>
<path d="M10.5619 2.31348V2.7087" stroke="white" stroke-width="0.7" stroke-miterlimit="10" stroke-linecap="round" stroke-linejoin="round"/>
<path d="M10.5619 5.5957V5.99092" stroke="white" stroke-width="0.7" stroke-miterlimit="10" stroke-linecap="round" stroke-linejoin="round"/>
<path d="M4.18808 14.6093C5.86459 14.3607 8.051 14.1694 9.38965 14.5902L13.769 15.9734C15.0184 16.3686 14.4638 18.4021 13.2144 18.0069L8.61198 16.5599" stroke="white" stroke-width="0.7" stroke-linecap="round" stroke-linejoin="round"/>
<path d="M14.3937 16.5666L17.8041 14.8965C19.0408 14.2909 19.8184 16.2415 18.6519 16.8152C13.4694 19.3523 13.8774 19.3651 11.8184 19.3651C10.6264 19.3651 8.85418 19.1611 6.59122 18.0774C6.1195 17.8543 5.12514 18.02 4.18808 18.2878" stroke="white" stroke-width="0.7" stroke-linecap="round" stroke-linejoin="round"/>
<path d="M4.18727 13.6729H1V19.4099H4.18727V13.6729Z" stroke="white" stroke-width="0.7" stroke-linecap="round" stroke-linejoin="round"/>
</svg>
