<svg width="14" height="14" viewBox="0 0 14 14" fill="none" xmlns="http://www.w3.org/2000/svg">
<path d="M6.89968 1.9862C8.57295 1.9862 8.76937 1.99366 9.43072 2.02349C10.0424 2.05084 10.373 2.15278 10.5943 2.2398C10.8877 2.35417 11.0965 2.48843 11.3153 2.70722C11.5341 2.92601 11.6709 3.13486 11.7828 3.42824C11.8673 3.64952 11.9717 3.9802 11.9991 4.59183C12.0289 5.25318 12.0364 5.4496 12.0364 7.12287C12.0364 8.79614 12.0289 8.99256 11.9991 9.65391C11.9717 10.2655 11.8698 10.5962 11.7828 10.8175C11.6684 11.1109 11.5341 11.3197 11.3153 11.5385C11.0965 11.7573 10.8877 11.8941 10.5943 12.0059C10.373 12.0905 10.0424 12.1949 9.43072 12.2222C8.76937 12.2521 8.57295 12.2595 6.89968 12.2595C5.22641 12.2595 5.02999 12.2521 4.36864 12.2222C3.75701 12.1949 3.42634 12.093 3.20506 12.0059C2.91167 11.8916 2.70283 11.7573 2.48403 11.5385C2.26524 11.3197 2.12849 11.1109 2.01661 10.8175C1.93208 10.5962 1.82765 10.2655 1.8003 9.65391C1.77047 8.99256 1.76301 8.79614 1.76301 7.12287C1.76301 5.4496 1.77047 5.25318 1.8003 4.59183C1.82765 3.9802 1.92959 3.64952 2.01661 3.42824C2.13098 3.13486 2.26524 2.92601 2.48403 2.70722C2.70283 2.48843 2.91167 2.35168 3.20506 2.2398C3.42634 2.15526 3.75701 2.05084 4.36864 2.02349C5.02999 1.99117 5.2289 1.9862 6.89968 1.9862ZM6.89968 0.857422C5.19906 0.857422 4.98524 0.864881 4.31643 0.894716C3.6501 0.924552 3.19511 1.03146 2.7973 1.18561C2.38458 1.34473 2.0365 1.56104 1.68842 1.90912C1.34034 2.2572 1.12652 2.60777 0.964909 3.01801C0.810759 3.41581 0.703849 3.8708 0.674013 4.53962C0.644178 5.20594 0.636719 5.41976 0.636719 7.12038C0.636719 8.821 0.644178 9.03483 0.674013 9.70364C0.703849 10.37 0.810759 10.825 0.964909 11.2252C1.12403 11.638 1.34034 11.9861 1.68842 12.3341C2.0365 12.6822 2.38707 12.896 2.7973 13.0576C3.19511 13.2118 3.6501 13.3187 4.31891 13.3485C4.98773 13.3784 5.19906 13.3858 6.90217 13.3858C8.60528 13.3858 8.81661 13.3784 9.48542 13.3485C10.1517 13.3187 10.6067 13.2118 11.007 13.0576C11.4198 12.8985 11.7678 12.6822 12.1159 12.3341C12.464 11.9861 12.6778 11.6355 12.8394 11.2252C12.9936 10.8274 13.1005 10.3724 13.1303 9.70364C13.1602 9.03483 13.1676 8.82349 13.1676 7.12038C13.1676 5.41728 13.1602 5.20594 13.1303 4.53713C13.1005 3.8708 12.9936 3.41581 12.8394 3.01552C12.6803 2.6028 12.464 2.25472 12.1159 1.90664C11.7678 1.55856 11.4173 1.34473 11.007 1.18313C10.6092 1.02898 10.1542 0.922065 9.48542 0.89223C8.81412 0.864881 8.6003 0.857422 6.89968 0.857422Z" fill="white"/>
<path d="M6.89951 3.90527C5.1243 3.90527 3.68225 5.34483 3.68225 7.12253C3.68225 8.90023 5.12181 10.3398 6.89951 10.3398C8.6772 10.3398 10.1168 8.90023 10.1168 7.12253C10.1168 5.34483 8.6772 3.90527 6.89951 3.90527ZM6.89951 9.20853C5.74587 9.20853 4.81103 8.27368 4.81103 7.12004C4.81103 5.96641 5.74587 5.03156 6.89951 5.03156C8.05315 5.03156 8.98799 5.96641 8.98799 7.12004C8.98799 8.27368 8.05315 9.20853 6.89951 9.20853Z" fill="white"/>
<path d="M10.2433 4.52711C10.6579 4.52711 10.9939 4.19094 10.9939 3.77625C10.9939 3.36156 10.6579 3.02539 10.2433 3.02539C9.82878 3.02539 9.49274 3.36156 9.49274 3.77625C9.49274 4.19094 9.82878 4.52711 10.2433 4.52711Z" fill="white"/>
</svg>
