<svg width="13" height="13" viewBox="0 0 13 13" fill="none" xmlns="http://www.w3.org/2000/svg">
<g clip-path="url(#clip0)">
<path d="M11.1531 0.857422H1.81352C1.1673 0.857422 0.636719 1.3816 0.636719 2.02674V11.3813C0.636719 12.0264 1.1673 12.5506 1.81352 12.5506H11.1531C11.8061 12.5506 12.3299 12.0264 12.3299 11.3813V2.02674C12.3299 1.3816 11.8061 0.857422 11.1531 0.857422ZM4.3916 10.1112H2.81346V5.1046H4.3848V10.1112H4.3916ZM3.59573 4.49306C3.09916 4.49306 2.77945 4.14361 2.77945 3.71352C2.77265 3.2767 3.10596 2.94069 3.61613 2.94069C4.12631 2.94069 4.43241 3.2767 4.44602 3.72024C4.43921 4.14361 4.1195 4.49306 3.59573 4.49306ZM10.1328 10.1112H8.56142V7.33571C8.56142 6.69057 8.33694 6.25376 7.76555 6.25376C7.3302 6.25376 7.07171 6.54945 6.95607 6.83842C6.91526 6.93922 6.90165 7.08707 6.90165 7.22819V10.1112H5.33032V6.70401C5.33032 6.07903 5.30991 5.56158 5.2895 5.11132H6.65677L6.73159 5.8035H6.7588C6.96287 5.47421 7.47305 4.99708 8.32334 4.99708C9.35729 4.99708 10.1328 5.68254 10.1328 7.15427V10.1112Z" fill="white"/>
<path d="M4.38481 5.10449H2.81348V10.1043H4.38481V5.10449Z" fill="#002B5C"/>
<path d="M3.61617 2.94043C3.10599 2.94043 2.77948 3.27644 2.77948 3.71997C2.77948 4.15007 3.09919 4.49952 3.59576 4.49952C4.12634 4.49952 4.44605 4.15007 4.44605 3.71997C4.43245 3.27644 4.11954 2.94043 3.61617 2.94043Z" fill="#002B5C"/>
<path d="M8.32333 4.99707C7.47304 4.99707 6.96966 5.48093 6.75879 5.8035H6.72478L6.64995 5.11131H5.28949C5.3099 5.55485 5.3303 6.07903 5.3303 6.70401V10.1112H6.90164V7.22147C6.90164 7.08034 6.91524 6.9325 6.95606 6.83169C7.0717 6.54272 7.33019 6.24703 7.76554 6.24703C8.33693 6.24703 8.56141 6.68385 8.56141 7.32899V10.0977H10.1327V7.14082C10.1327 5.68253 9.35728 4.99707 8.32333 4.99707Z" fill="#002B5C"/>
</g>
<defs>
<clipPath id="clip0">
<rect width="11.6932" height="11.6932" fill="white" transform="translate(0.636719 0.857422)"/>
</clipPath>
</defs>
</svg>
