<svg width="152" height="23" viewBox="0 0 152 23" fill="none" xmlns="http://www.w3.org/2000/svg">
<path d="M147.465 2.55645L147.359 2.50776L147.383 2.44824L147.676 2.5808L147.648 2.64032L147.54 2.59162L147.4 2.90543L147.324 2.87297L147.465 2.55645Z" fill="white"/>
<path d="M147.732 2.60254L147.851 2.66206L147.8 2.98398L148.027 2.74862L148.143 2.80543L147.965 3.17606L147.895 3.14089L148.043 2.83519L147.795 3.09219L147.724 3.05703L147.77 2.70534L147.621 3.00833L147.551 2.97316L147.732 2.60254Z" fill="white"/>
<path d="M148.606 5.80273L148.598 5.81356C150.005 7.22571 150.93 9.13293 151.079 11.2755C151.412 16.0124 147.841 20.119 143.104 20.4491C140.877 20.6033 138.789 19.8972 137.168 18.6149L137.157 18.6257C138.84 20.1948 141.145 21.0902 143.62 20.9171C148.357 20.5844 151.925 16.475 151.595 11.7381C151.433 9.34394 150.3 7.24735 148.606 5.80273Z" fill="white"/>
<path d="M133.37 15.5778C133.1 15.7292 133.035 15.9592 133.178 16.3136C133.305 16.6355 133.511 16.7789 133.724 16.6896C133.898 16.622 133.927 16.4705 133.854 16.0809L133.825 15.9321C133.754 15.548 133.741 15.383 133.787 15.2207C133.833 15.0394 133.938 14.915 134.098 14.8527C134.487 14.6985 134.855 14.9366 135.072 15.4858C135.31 16.0782 135.183 16.5219 134.723 16.714L134.606 16.4245C134.926 16.2865 135.007 15.9862 134.836 15.5561C134.693 15.2071 134.471 15.0502 134.238 15.1449C134.049 15.2207 134.003 15.3965 134.073 15.7969L134.101 15.9646L134.125 16.1107C134.176 16.4083 134.182 16.5138 134.152 16.6382C134.111 16.7951 134.011 16.9087 133.852 16.9764C133.486 17.1225 133.135 16.906 132.94 16.4137C132.726 15.8807 132.84 15.4831 133.251 15.2991L133.37 15.5778Z" fill="white"/>
<path d="M133.127 12.4714L134.43 11.373L134.439 11.7815L133.335 12.6959L133.692 13.0909L134.468 13.0747L134.476 13.3939L132.258 13.4399L132.25 13.1207L133.124 13.1044H133.243L133.356 13.1017L133.281 13.0233L133.208 12.9448L132.226 11.8843L132.215 11.4623L133.127 12.4714Z" fill="white"/>
<path d="M134.109 9.04147L134.961 9.33905L134.858 9.63934L134 9.33905L132.469 9.80165L132.599 9.43644L133.549 9.17132L133.668 9.13616C133.714 9.12263 133.746 9.11722 133.827 9.09828C133.754 9.01171 133.735 8.99007 133.657 8.88186L133.072 8.08921L133.194 7.74023L134.109 9.04147Z" fill="white"/>
<path d="M135.607 4.96989L135.139 5.54341L136.541 6.68774L136.202 7.09894L134.804 5.95461L134.339 6.52542L134.019 6.26301L135.291 4.71289L135.607 4.96989Z" fill="white"/>
<path d="M138.599 2.87099L137.479 3.52296L137.72 3.93146L138.748 3.33089L138.938 3.65823L137.912 4.2588L138.188 4.73222L139.33 4.06402L139.535 4.4157L137.937 5.35173L136.817 3.4391L138.394 2.5166L138.599 2.87099Z" fill="white"/>
<path d="M142.892 3.72836L142.314 3.76623L142.027 3.2901L141.131 3.43078L141.004 3.97724L140.452 4.11792L141.037 1.69399L141.583 1.60742L142.892 3.72836ZM141.624 2.58944C141.502 2.38384 141.456 2.29456 141.386 2.13766C141.364 2.29456 141.342 2.41359 141.291 2.64084L141.199 3.06286L141.846 2.96006L141.624 2.58944Z" fill="white"/>
<path d="M146.453 4.43962L145.985 4.26107L146.163 3.60098C146.182 3.52524 146.212 3.41703 146.247 3.28447C146.285 3.1465 146.317 3.03558 146.342 2.95713C146.369 2.86786 146.399 2.77588 146.428 2.68119L146.482 2.52429C146.35 2.74882 146.298 2.82728 146.179 3.00853C146.128 3.08698 146.082 3.15461 146.044 3.20872L145.414 4.08793L145.011 3.98243L144.886 2.92467C144.878 2.87056 144.873 2.79211 144.865 2.68931C144.857 2.54863 144.848 2.44313 144.846 2.37279C144.843 2.31057 144.846 2.224 144.846 2.10226L144.792 2.37008C144.724 2.66225 144.697 2.7894 144.608 3.13838L144.424 3.85257L143.934 3.77412L144.486 1.60449L145.233 1.74787L145.335 2.77317C145.362 3.01665 145.368 3.21413 145.357 3.50089C145.441 3.33857 145.471 3.28176 145.568 3.13297C145.63 3.03288 145.687 2.94631 145.736 2.87056L146.32 2.03193L147.026 2.27269L146.453 4.43962Z" fill="white"/>
<path d="M142.216 8.71103C141.946 8.94638 141.415 9.45768 140.899 9.95275L140.317 10.5127C139.841 10.4235 139.37 10.3829 138.886 10.3829C137.804 10.3829 136.817 10.6805 136.367 11.1404C136.194 11.3162 136.108 11.5083 136.113 11.7085C136.124 12.2306 136.722 12.493 136.906 12.5633C137.863 12.9204 138.67 12.8176 139.514 12.2252C139.982 11.8978 140.542 11.373 140.983 10.9537C141.321 11.0322 141.708 11.1322 142.124 11.2567L142.508 11.3676C142.011 11.8573 141.499 12.3713 141.026 12.7906L140.991 12.823C140.333 13.4047 139.857 13.8267 139.167 13.9782C138.683 14.0864 138.34 13.9836 138.226 13.9133C138.215 13.9133 138.199 13.9349 138.199 13.9349C138.594 14.2622 138.973 14.4489 139.622 14.3921C140.239 14.338 140.95 13.9484 141.683 13.2667L142.668 12.2982L143.358 11.6138C143.358 11.6192 144.751 12.0223 144.751 12.0223C144.765 12.025 144.778 12.0304 144.778 12.0304C144.765 12.0304 143.915 12.8717 143.915 12.8717L143.174 13.6076C142.414 14.3461 142 14.7303 141.559 15.0414C140.823 15.5608 140.195 15.834 139.641 15.8692C139.354 15.8881 138.943 15.8692 138.597 15.6663C138.58 15.6609 138.561 15.6825 138.561 15.6825C138.935 16.0044 139.395 16.3886 140.185 16.3642C141.077 16.3399 141.87 15.9098 143.104 14.7763C143.666 14.2595 144.226 13.6833 144.719 13.172L145.633 12.2441C146.236 12.3794 146.775 12.4335 147.373 12.42C148.241 12.4037 148.982 11.9871 148.993 11.5137C148.998 11.162 148.712 10.9753 148.538 10.8617C148.398 10.7697 148.006 10.5533 147.47 10.5533C146.818 10.5533 146.139 10.8401 145.452 11.4055L144.995 11.8113C144.997 11.8086 144.827 11.7653 144.827 11.7653L143.55 11.4082C143.926 11.0592 144.248 10.7562 144.535 10.4992C145.233 9.8797 146.006 9.62541 146.458 9.59295C146.785 9.5713 147.362 9.60106 147.597 9.76879C147.608 9.76608 147.621 9.74173 147.621 9.74173C146.994 9.20339 146.45 9.13305 146.004 9.13305C145.563 9.13305 144.854 9.27372 143.988 9.94734C143.634 10.2206 143.174 10.6805 142.692 11.1647C142.692 11.1593 142.046 10.9672 142.046 10.9672L141.889 10.9158L141.213 10.7102C141.226 10.7102 141.599 10.3477 141.599 10.3477C142.057 9.89864 142.487 9.47391 142.825 9.19256C144.05 8.16186 144.819 8.02659 145.354 8.02659C145.939 8.02389 146.407 8.14292 146.739 8.38639C146.75 8.38369 146.767 8.36205 146.767 8.36205C146.079 7.73983 145.584 7.54235 144.732 7.53423C143.985 7.52882 143.09 7.94543 142.216 8.71103ZM137.406 12.3794C137.009 12.3523 136.814 12.19 136.814 11.887C136.814 11.8464 136.838 10.878 139.062 10.7643C139.316 10.7508 139.6 10.7427 140.03 10.7914C140.011 10.7941 139.779 11.0078 139.779 11.0078L139.638 11.135C139.108 11.6219 138.21 12.4335 137.406 12.3794ZM146.401 11.5894C147.042 11.1593 147.575 10.9294 147.903 10.9402C148.1 10.9483 148.333 11.0078 148.333 11.2486C148.333 11.4948 148.098 11.7058 147.632 11.8681C147.226 12.0142 146.604 12.0493 145.922 11.9736C146.112 11.8086 146.269 11.6814 146.401 11.5894Z" fill="white"/>
<path d="M20.2166 6.95037C20.6737 6.95578 20.9876 7.09375 21.2419 7.21278C21.7721 7.46437 22.3916 7.75113 23.168 8.12446C23.168 8.12717 24.4233 7.23443 24.4882 7.18844C24.9129 6.89627 25.3241 7.1181 25.4594 7.36969C25.9274 8.2489 26.7877 10.0831 27.2449 11.7576C27.299 11.9578 27.234 12.2744 26.9202 12.3663C26.7417 12.4204 26.4279 12.4637 26.1005 12.5043C25.646 12.5611 25.6542 12.929 25.6542 13.1509C25.6542 13.4241 25.6569 15.2745 25.6569 15.9048C25.6677 16.2944 25.3701 17.5632 23.9065 17.5605C23.8065 17.5605 20.5466 17.5605 20.5628 17.5605C19.2995 17.5659 18.2823 16.5 18.2769 15.3611C18.2742 14.6117 18.2742 9.40676 18.2769 8.82242C18.2823 7.69703 19.2941 6.93685 20.2166 6.95037Z" fill="white"/>
<path d="M14.9277 17.563H4.05791V18.7723H16.8133C16.8133 18.7723 17.2732 17.7037 17.2732 16.5242C17.2732 16.462 17.2759 8.3272 17.2759 8.3272C17.2759 7.68064 17.5383 6.59041 18.8693 6.29824C18.9045 6.29013 18.9423 6.28472 18.9802 6.2766C22.7459 5.38656 26.628 6.19815 28.8139 7.14229C29.2088 7.33166 29.2981 7.01784 29.2873 6.88258C29.336 5.04029 27.9347 2.941 25.3565 2.81385C23.2654 2.76515 22.1048 3.51722 21.6774 3.72553C21.6449 3.74176 21.5935 3.73364 21.5448 3.67954C21.1579 3.29809 20.3355 2.72998 19.4076 2.46216C19.2697 2.43511 19.2561 2.22951 19.4158 2.21328C21.3987 2.00227 23.1301 2.2241 23.8524 2.34313C24.0174 2.37018 24.1446 2.27279 24.0769 2.1213C24.0282 2.00497 23.985 1.94816 23.9011 1.76961C23.7253 1.39087 23.2572 0.987788 22.6648 0.825472C21.112 0.389922 18.4608 0.0165945 16.0991 0.000362858C13.4398 -0.0158688 10.6371 0.51707 9.93106 0.673976C9.76063 0.71185 9.52256 0.771366 9.48199 0.779482C9.28991 0.817356 9.24392 1.00131 9.32779 1.09059C9.37919 1.1501 9.52527 1.27184 9.59561 1.35841C9.68218 1.46662 9.72546 1.62353 9.55773 1.78584L4.63954 6.20356H8.0022L8.04007 6.20085C8.2592 6.19815 8.46751 6.39563 8.46751 6.64722C8.46751 6.87176 8.28625 7.08818 8.05901 7.08818L8.03196 7.09089H3.66024L2.32383 8.30555H8.04278L8.07524 8.30285C8.29978 8.30555 8.47562 8.53821 8.47292 8.74922C8.47021 8.9467 8.30519 9.18477 8.07524 9.18477H8.04007H1.34452L0.00541055 10.3967H11.5596L11.5948 10.3994C11.822 10.3994 12.0006 10.6321 12.0033 10.835C12.006 11.0731 11.8383 11.2868 11.6056 11.2868L11.5732 11.2841H0.00270527V12.4906H11.5461L11.5813 12.4933C11.8464 12.496 12.0006 12.7341 11.9979 12.9559C11.9979 13.1534 11.8058 13.3698 11.5759 13.3698H11.5434H0.00270527L0 14.5872H15.0738L15.1117 14.5845C15.3605 14.5926 15.5229 14.8063 15.5147 15.0417C15.5093 15.2473 15.3389 15.4664 15.1117 15.4664H15.0792H4.06062V16.6784H14.9277H15.1549C15.3605 16.6784 15.5337 16.9327 15.5337 17.1356C15.5337 17.3412 15.3551 17.563 15.1495 17.563H14.9277Z" fill="white"/>
<path d="M8.11586 21.7373L8.11316 22.9736C8.11316 22.9736 9.74715 22.979 10.6778 22.9736C12.9745 22.9601 14.4787 21.7373 14.4787 21.7373H8.11586Z" fill="white"/>
<path d="M8.11586 19.6572L8.11316 20.8692H15.4931C15.834 20.5256 16.2723 19.8926 16.3859 19.6599L8.11586 19.6572Z" fill="white"/>
<path d="M127.113 12.1826C127.11 12.161 127.105 12.1366 127.105 12.1177C127.061 11.1763 126.75 10.3376 126.312 9.68567C125.398 8.25187 123.793 7.47817 121.862 7.50251C119.93 7.47817 118.329 8.24917 117.412 9.68567C116.973 10.3376 116.659 11.1763 116.619 12.1177C116.619 12.1366 116.614 12.161 116.611 12.1826C116.348 15.3316 118.18 17.5066 121.31 17.7582C121.497 17.7744 121.678 17.7771 121.859 17.7771C122.038 17.7771 122.222 17.7717 122.408 17.7582C125.538 17.5093 127.372 15.3316 127.113 12.1826ZM122.105 16.2811C122.021 16.2865 121.94 16.2892 121.862 16.2919C121.783 16.2919 121.705 16.2892 121.618 16.2811C121.161 16.2378 120.801 16.0755 120.469 15.8212C120.374 15.7428 120.282 15.6562 120.193 15.5534C119.711 15.0096 119.451 14.0871 119.392 13.3567C119.248 11.6551 119.589 9.16896 121.68 9.00123C121.735 8.99582 121.786 8.99312 121.837 8.99312C121.846 8.99312 121.854 8.99312 121.862 8.99312C121.87 8.99312 121.878 8.99312 121.886 8.99312C121.937 8.99312 121.989 8.99582 122.043 9.00123C124.134 9.16896 124.475 11.6551 124.334 13.3567C124.272 14.0871 124.039 14.9934 123.531 15.5534C123.439 15.6562 123.35 15.7455 123.255 15.8212C122.925 16.0782 122.533 16.2487 122.105 16.2811Z" fill="white"/>
<path d="M106.317 9.83939C106.317 9.06027 106.393 7.69141 106.393 7.69141H106.39H103.831H103.828C103.828 7.69141 103.904 9.06027 103.904 9.83939L103.899 15.4474C103.899 16.2265 103.828 17.5521 103.828 17.5521H103.834H106.388H106.393C106.393 17.5521 106.323 16.2265 106.323 15.4474L106.317 9.83939Z" fill="white"/>
<path d="M91.3381 16.0318C90.8025 16.0318 90.0991 16.0318 89.5554 16.0345C89.531 15.0443 89.5202 14.084 89.5148 13.2156V13.083V13.0803V13.056H92.477V11.66H89.5175C89.5283 10.1586 89.5554 9.17119 89.5554 9.17119H93.2318V7.69141C90.6645 7.69952 86.9529 7.69141 86.9529 7.69141C86.9529 7.69141 87.0097 9.05216 87.0097 9.83128V15.4285C87.0097 16.1427 86.9637 17.3519 86.9556 17.5548H93.4753L93.4807 15.9885C93.4807 15.9885 92.1957 16.0318 91.3381 16.0318Z" fill="white"/>
<path d="M48.5948 16.0315C48.0592 16.0315 47.3531 16.0315 46.8121 16.0342C46.7877 15.0441 46.7769 14.0837 46.7742 13.2154L46.7715 13.0801V13.0557H49.7311V11.6598H46.7742C46.7823 10.1584 46.8121 9.17097 46.8121 9.17097L50.4885 9.16826V7.68848C47.9185 7.69659 44.2096 7.68848 44.2096 7.68848C44.2096 7.68848 44.2664 9.04923 44.2664 9.82835V15.4256C44.2664 16.1398 44.2204 17.349 44.2123 17.5519H50.732L50.7374 15.9856C50.7347 15.9883 49.4497 16.0315 48.5948 16.0315Z" fill="white"/>
<path d="M99.7299 12.25L102.56 7.69434H100.598L100.585 7.73762C99.9923 8.76292 99.2511 10.0046 98.9589 10.4591L98.8426 10.6431L97.2032 7.69704H94.2544L97.0977 12.7965L94.1381 17.5578H96.0886C97.352 15.399 98.0013 14.4061 98.0013 14.4061L99.7597 17.5578H102.695L99.7299 12.25Z" fill="white"/>
<path d="M114.314 16.2126C112.034 16.2126 110.805 14.5354 110.868 12.4712C110.922 10.6722 111.744 9.14375 113.705 9.0139C114.455 8.9625 115.066 9.09506 116.121 9.37641L116.013 7.8344C116.013 7.8344 115.12 7.55035 113.843 7.50165C112.217 7.43943 110.749 7.75324 109.572 8.83535C108.53 9.79302 107.905 11.216 107.905 12.5903C107.905 14.1188 108.533 15.5255 109.71 16.4967C110.935 17.5301 112.25 17.7628 113.811 17.7628C114.836 17.7628 115.439 17.6924 116.435 17.4246L116.286 15.9124C116.07 15.9854 115.347 16.2126 114.314 16.2126Z" fill="white"/>
<path d="M81.38 6.21462L84.2368 6.21191L84.3179 6.872C84.9564 13.4593 85.3487 17.5578 85.3487 17.5578H82.3729L82.078 13.4756L81.8048 9.82887L79.2834 17.5524C78.6179 17.5524 77.6927 17.5524 77.6927 17.5524C77.6927 17.5524 76.8947 14.8066 76.7486 14.4224L75.304 9.79099C75.304 9.79099 75.0821 12.3691 74.9956 13.4729C74.8224 15.6858 74.6682 17.5551 74.6682 17.5551H72.4472C72.4472 17.5551 73.3562 8.33014 73.4238 7.77015C73.4942 7.19122 73.6024 6.21191 73.6024 6.21191H76.5186L78.9372 12.8534L81.38 6.21462Z" fill="white"/>
<path d="M71.2516 12.1962C71.2516 12.1745 71.2461 12.1529 71.2461 12.1312C71.2056 11.1952 70.8918 10.3593 70.4562 9.71001C69.5445 8.28162 67.9484 7.51332 66.0277 7.53767C64.1069 7.51332 62.5108 8.28162 61.5991 9.71001C61.1636 10.3593 60.8498 11.1952 60.8092 12.1312C60.8065 12.1529 60.8038 12.1745 60.8011 12.1962C60.5387 15.3316 62.3674 17.4985 65.4785 17.7474C65.6652 17.7636 65.8464 17.769 66.025 17.769C66.2035 17.769 66.3875 17.7636 66.5714 17.7474C69.6879 17.4985 71.514 15.3316 71.2516 12.1962ZM66.2684 16.2757C66.1846 16.2811 66.1061 16.2865 66.0277 16.2865C65.9492 16.2838 65.8708 16.2838 65.7869 16.2757C65.3297 16.2324 64.9699 16.0701 64.6426 15.8185C64.5506 15.7401 64.4559 15.6508 64.3666 15.5507C63.8878 15.0096 63.6281 14.0898 63.5686 13.3621C63.4279 11.6686 63.7688 9.1933 65.8491 9.02828C65.9032 9.02287 65.9546 9.02016 66.006 9.01746H66.0304H66.0547C66.1061 9.02016 66.1575 9.02287 66.2116 9.02828C68.292 9.1933 68.6329 11.6686 68.4922 13.3621C68.4327 14.0898 68.2 14.9934 67.6941 15.5507C67.6021 15.6508 67.5129 15.7401 67.4182 15.8185C67.0827 16.0728 66.6959 16.2432 66.2684 16.2757Z" fill="white"/>
<path d="M43.5901 17.5544C43.5036 17.3515 42.976 16.0989 42.5865 15.0872L39.2536 6.21387H36.6619C36.6619 6.21387 35.9207 8.29152 35.8152 8.63509L33.3804 15.5173C33.0639 16.3965 32.6202 17.5517 32.6202 17.5517H34.7385C34.7385 17.5517 35.339 15.6363 35.4608 15.2928L35.7854 14.3351H39.4565L39.9569 15.7932C40.0597 16.0665 40.4953 17.5273 40.5034 17.5517H43.5901V17.5544ZM36.3238 12.7228L37.5601 9.049L37.6277 8.83528L38.9208 12.7228H36.3238Z" fill="white"/>
<path d="M60.9336 17.5544C60.3222 16.6752 60.0949 16.31 59.6242 15.6634L57.855 12.9148C58.7044 12.4955 59.5052 11.7922 59.6242 10.3205C59.7 9.39799 59.2076 8.6351 58.9154 8.37269C58.4907 7.99395 58.0741 7.84245 57.487 7.77212C57.0163 7.70989 56.6755 7.70448 56.3914 7.68555H52.2253C52.2253 7.68555 52.2767 9.04901 52.2767 9.83083V15.4064C52.2767 16.1855 52.2253 17.5517 52.2253 17.5517H54.7872C54.7872 17.5517 54.7114 16.1882 54.7114 15.4064L54.7304 13.6155C54.7304 13.6155 55.2877 13.6182 55.6799 13.6182L57.3031 16.5913C57.5222 16.97 57.836 17.4435 57.9091 17.5517H60.9336V17.5544ZM56.4049 12.0492C56.0208 12.2493 55.1578 12.1925 54.7304 12.1682L54.7628 9.34929L55.0009 9.33035C55.7854 9.26813 56.3589 9.37634 56.597 9.47914C56.9487 9.63605 57.157 9.9688 57.1732 10.5234C57.203 11.3539 56.8892 11.8003 56.4049 12.0492Z" fill="white"/>
<path d="M126.839 16.5913C126.839 16.0557 127.275 15.6201 127.808 15.6201C128.344 15.6201 128.779 16.0557 128.779 16.5913C128.779 17.127 128.341 17.5625 127.808 17.5625C127.275 17.5625 126.839 17.127 126.839 16.5913ZM128.547 16.5913C128.547 16.1368 128.219 15.8068 127.811 15.8068C127.405 15.8068 127.078 16.1368 127.078 16.5913C127.078 17.0458 127.405 17.3731 127.811 17.3731C128.219 17.3731 128.547 17.0431 128.547 16.5913ZM127.44 16.0367H127.849C128.114 16.0367 128.254 16.1287 128.254 16.3614C128.254 16.5507 128.149 16.64 127.968 16.6562L128.262 17.1378H128.051L127.767 16.6644H127.643V17.1378H127.44V16.0367ZM127.643 16.5074H127.821C127.943 16.5074 128.049 16.4912 128.049 16.3424C128.049 16.2153 127.93 16.1936 127.827 16.1936H127.643V16.5074Z" fill="white"/>
<path d="M99.8003 20.5499C80.6253 16.3784 72.45 22.9414 72.45 22.9414C72.45 22.9414 81.3746 17.6607 99.7894 21.6645C118.578 25.7495 127.134 19.1621 127.134 19.1621C127.134 19.1621 117.593 24.4212 99.8003 20.5499Z" fill="#EE3124"/>
</svg>
