<svg width="22" height="16" viewBox="0 0 22 16" fill="none" xmlns="http://www.w3.org/2000/svg">
<path d="M13.8689 3.20996H8.07936V12.666H13.8689V3.20996Z" fill="#FF5F00"/>
<path d="M8.67574 7.93836C8.67503 7.02782 8.88144 6.12905 9.27935 5.31006C9.67727 4.49107 10.2563 3.77333 10.9725 3.21115C10.0854 2.51397 9.02003 2.08043 7.89817 1.96009C6.77631 1.83974 5.64322 2.03745 4.62841 2.53062C3.6136 3.02378 2.758 3.79251 2.15941 4.74893C1.56082 5.70536 1.24339 6.81089 1.24339 7.93919C1.24339 9.06749 1.56082 10.173 2.15941 11.1294C2.758 12.0859 3.6136 12.8546 4.62841 13.3478C5.64322 13.8409 6.77631 14.0386 7.89817 13.9183C9.02003 13.798 10.0854 13.3644 10.9725 12.6672C10.256 12.1049 9.67692 11.3869 9.27899 10.5676C8.88106 9.74827 8.67477 8.84917 8.67574 7.93836Z" fill="#EB001B"/>
<path d="M20.1279 11.6655V11.4717H20.2114V11.4316H20.0127V11.4717H20.0912V11.6655H20.1279ZM20.5138 11.6655V11.4316H20.4536L20.3835 11.5987L20.3133 11.4316H20.2532V11.6655H20.2966V11.4884L20.3618 11.6404H20.4069L20.472 11.4884V11.6655H20.5138Z" fill="#F79E1B"/>
<path d="M20.7029 7.93877C20.7028 9.06715 20.3853 10.1728 19.7866 11.1292C19.1879 12.0857 18.3322 12.8544 17.3173 13.3475C16.3023 13.8406 15.1691 14.0382 14.0472 13.9176C12.9253 13.7971 11.8599 13.3634 10.9728 12.666C11.6888 12.1033 12.2676 11.3854 12.6657 10.5663C13.0637 9.74729 13.2705 8.84856 13.2705 7.93793C13.2705 7.02731 13.0637 6.12858 12.6657 5.30955C12.2676 4.49051 11.6888 3.77257 10.9728 3.20989C11.8599 2.51249 12.9253 2.07874 14.0472 1.95823C15.1691 1.83771 16.3023 2.0353 17.3173 2.52839C18.3322 3.02149 19.1879 3.7902 19.7866 4.74665C20.3853 5.70311 20.7028 6.80872 20.7029 7.9371V7.93877Z" fill="#F79E1B"/>
</svg>
