<svg width="27" height="27" viewBox="0 0 27 27" fill="none" xmlns="http://www.w3.org/2000/svg">
<path d="M13.5 27C20.9558 27 27 20.9558 27 13.5C27 6.04416 20.9558 0 13.5 0C6.04416 0 0 6.04416 0 13.5C0 20.9558 6.04416 27 13.5 27Z" fill="#F9F9F9"/>
<path d="M26.9997 13.5003C26.9997 8.14806 23.8849 3.52347 19.3692 1.33984V25.6607C23.8849 23.4771 26.9997 18.8525 26.9997 13.5003Z" fill="#CE1126"/>
<path d="M0 13.5003C0 18.8525 3.11476 23.4771 7.63045 25.6607V1.33984C3.11476 3.52347 0 8.14806 0 13.5003Z" fill="#048C61"/>
<path d="M14.6632 13.9082L13.6426 14.4186V14.9289H14.1529L14.6632 13.9082Z" fill="#FFD250"/>
<path d="M13.6422 16.2048C13.5012 16.2048 13.387 16.0907 13.387 15.9496V14.929C13.387 14.788 13.5012 14.6738 13.6422 14.6738C13.7832 14.6738 13.8974 14.788 13.8974 14.929V15.9496C13.8974 16.0907 13.7832 16.2048 13.6422 16.2048Z" fill="#00C3A0"/>
<path d="M13.6424 15.1841C12.6401 15.1841 11.6724 14.7974 10.9172 14.0952C10.814 13.9993 10.808 13.8378 10.9039 13.7347C11.0006 13.6318 11.1618 13.6263 11.2644 13.7214C11.925 14.3356 12.7694 14.6738 13.6423 14.6738C14.5151 14.6738 15.3596 14.3356 16.0202 13.7214C16.1231 13.626 16.2843 13.6312 16.3807 13.7347C16.4766 13.8378 16.4707 13.9993 16.3674 14.0952C15.6124 14.7974 14.6446 15.1841 13.6424 15.1841Z" fill="#00C3A0"/>
<path d="M13.6425 16.2046C12.9884 16.2046 12.3548 16.0135 11.81 15.6517L12.0926 15.2266C13.0136 15.8385 14.2714 15.8385 15.1923 15.2266L15.4748 15.6517C14.9302 16.0135 14.2966 16.2046 13.6425 16.2046Z" fill="#00AADC"/>
<path d="M13.2389 12.7598L12.6755 13.6317L12.5798 13.9186L14.047 13.5784L13.2389 12.7598Z" fill="#732D37"/>
<path d="M12.0813 14.1986C11.4068 14.1986 10.5972 13.6309 10.3824 12.3661L10.8857 12.2809C11.0642 13.3327 11.7112 13.689 12.0997 13.688C12.2188 13.6847 12.3431 13.6436 12.3529 13.5595C12.3644 13.4588 12.3671 13.4349 12.1003 13.3447C11.9552 13.2955 11.7908 13.24 11.6754 13.108C11.2086 12.575 11.8406 12.0109 12.1442 11.7398C12.1977 11.692 12.2199 11.6513 12.2142 11.6359C12.1975 11.5923 12.0974 11.5263 11.9845 11.5263C11.6603 11.5263 11.4144 11.3432 11.3429 11.0486C11.2686 10.7436 11.4089 10.4222 11.6761 10.2842L11.9104 10.7377C11.8477 10.77 11.8229 10.8622 11.8388 10.928C11.8451 10.9545 11.8603 11.016 11.9846 11.016C12.2971 11.016 12.5944 11.2004 12.691 11.4541C12.7324 11.5622 12.7947 11.8433 12.4842 12.1206C12.1491 12.4199 11.9485 12.6451 12.0596 12.7719C12.0848 12.8006 12.1927 12.8372 12.264 12.8612C12.4937 12.9389 12.9213 13.0834 12.86 13.6179C12.8216 13.954 12.5216 14.1872 12.114 14.1983C12.103 14.1983 12.092 14.1986 12.0813 14.1986Z" fill="#AAD264"/>
<path d="M14.1529 11.3564C14.1529 11.3564 14.6632 10.3358 13.6426 9.82546C13.6426 9.82546 17.2147 9.31514 16.7044 13.908L16.7042 13.9078C16.3693 13.6398 15.872 13.1501 15.6945 12.7597L14.1529 11.8666V11.3564Z" fill="#874150"/>
<path d="M13.6426 12.377L16.1941 13.9079C16.1941 13.9079 16.1941 13.9079 15.1735 14.4182L13.6426 12.8873V12.377Z" fill="#732D37"/>
<path d="M12.6219 10.8462C12.9037 10.8462 13.1322 11.0747 13.1322 11.3565L13.1317 11.3571C12.8272 11.6615 12.7518 12.1265 12.9443 12.5117L13.0596 12.7423C13.1077 12.8384 13.171 12.9263 13.247 13.0023L14.6632 14.4185V13.7132C14.6632 12.8346 14.4587 11.9681 14.0657 11.1822C13.8064 10.6636 13.2763 10.3359 12.6964 10.3359H12.622V10.8463H12.6219V10.8462Z" fill="#783C46"/>
<path d="M12.6219 10.3359L12.1116 10.8463V11.3566C12.1116 11.3566 12.7186 11.0488 12.9232 10.9508C13.0662 10.8823 13.0402 10.7202 12.9581 10.6421C12.8942 10.5814 12.6219 10.3359 12.6219 10.3359Z" fill="#FFD250"/>
<path d="M13.6428 17.2243C11.251 17.2243 9.30516 15.2786 9.30516 12.8867H9.81549C9.81549 14.9973 11.5323 16.7141 13.6429 16.7141C15.7534 16.7141 17.4702 14.9973 17.4702 12.8867H17.9805C17.9804 15.2786 16.0346 17.2243 13.6428 17.2243Z" fill="#AAD264"/>
<path d="M9.84367 14.7473C10.0349 14.7473 10.19 14.5922 10.19 14.401C10.19 14.2097 10.0349 14.0547 9.84367 14.0547C9.65242 14.0547 9.49738 14.2097 9.49738 14.401C9.49738 14.5922 9.65242 14.7473 9.84367 14.7473Z" fill="#FFE15A"/>
<path d="M10.6082 15.9699C10.7994 15.9699 10.9545 15.8149 10.9545 15.6236C10.9545 15.4324 10.7994 15.2773 10.6082 15.2773C10.4169 15.2773 10.2619 15.4324 10.2619 15.6236C10.2619 15.8149 10.4169 15.9699 10.6082 15.9699Z" fill="#FFE15A"/>
<path d="M11.8525 16.8947C12.0438 16.8947 12.1988 16.7397 12.1988 16.5484C12.1988 16.3572 12.0438 16.2021 11.8525 16.2021C11.6613 16.2021 11.5062 16.3572 11.5062 16.5484C11.5062 16.7397 11.6613 16.8947 11.8525 16.8947Z" fill="#FFE15A"/>
<path d="M17.4785 14.7473C17.6698 14.7473 17.8248 14.5922 17.8248 14.401C17.8248 14.2097 17.6698 14.0547 17.4785 14.0547C17.2872 14.0547 17.1322 14.2097 17.1322 14.401C17.1322 14.5922 17.2872 14.7473 17.4785 14.7473Z" fill="#FFE15A"/>
<path d="M16.7126 15.9699C16.9038 15.9699 17.0589 15.8149 17.0589 15.6236C17.0589 15.4324 16.9038 15.2773 16.7126 15.2773C16.5213 15.2773 16.3663 15.4324 16.3663 15.6236C16.3663 15.8149 16.5213 15.9699 16.7126 15.9699Z" fill="#FFE15A"/>
<path d="M15.4691 16.8947C15.6603 16.8947 15.8154 16.7397 15.8154 16.5484C15.8154 16.3572 15.6603 16.2021 15.4691 16.2021C15.2778 16.2021 15.1228 16.3572 15.1228 16.5484C15.1228 16.7397 15.2778 16.8947 15.4691 16.8947Z" fill="#FFE15A"/>
<path d="M13.8981 16.4591H13.3878C13.106 16.4591 12.8775 16.2306 12.8775 15.9488C12.8775 15.667 13.106 15.4385 13.3878 15.4385H13.8981C14.18 15.4385 14.4085 15.667 14.4085 15.9488C14.4085 16.2307 14.18 16.4591 13.8981 16.4591Z" fill="#FFB478"/>
<path d="M15.6945 12.7597C15.8646 13.2593 16.226 13.7165 16.7042 13.9077L16.7044 13.9079C17.2147 9.3152 13.6426 9.82546 13.6426 9.82546C16.1941 9.82546 15.6945 12.7597 15.6945 12.7597Z" fill="#9B4B5A"/>
</svg>
