<svg width="12" height="12" viewBox="0 0 12 12" fill="none" xmlns="http://www.w3.org/2000/svg">
<path d="M11.6614 10.8126L8.77559 7.92611C9.41424 7.09801 9.81636 6.05697 9.81636 4.92128C9.81636 2.20038 7.61655 0 4.89635 0C2.17616 0 0 2.20038 0 4.89762C0 7.59487 2.19981 9.79525 4.89635 9.79525C6.03174 9.79525 7.07251 9.39303 7.90039 8.75421L10.7862 11.6407C11.0227 11.8773 11.4012 11.8773 11.6377 11.6407C11.8742 11.4278 11.8742 11.0256 11.6614 10.8126ZM1.01712 4.89762C1.01712 2.74456 2.7675 0.993721 4.92 0.993721C7.07251 0.993721 8.82289 2.74456 8.82289 4.89762C8.82289 7.05069 7.07251 8.80153 4.92 8.80153C2.7675 8.80153 1.01712 7.05069 1.01712 4.89762Z" fill="white"/>
</svg>
