<svg width="17" height="23" viewBox="0 0 17 23" fill="none" xmlns="http://www.w3.org/2000/svg">
<path d="M9.09278 3.01047C9.04896 4.07696 8.14317 4.8951 7.08399 4.85127C6.01751 4.80744 5.19937 3.90166 5.2432 2.84248C5.28703 1.77599 6.19281 0.957853 7.25199 1.00168C8.31117 1.04551 9.13661 1.94399 9.09278 3.01047Z" stroke="white" stroke-width="0.7" stroke-miterlimit="10" stroke-linecap="round" stroke-linejoin="round"/>
<path d="M5.57316 10.7903L5.41248 8.8911C5.4563 7.82461 6.28176 6.89688 7.35555 6.84575C8.56082 6.79462 9.32774 7.72964 9.47384 8.96413L9.70764 10.6661L12.2497 12.2586" stroke="white" stroke-width="0.7" stroke-miterlimit="10" stroke-linecap="round" stroke-linejoin="round"/>
<path d="M13.8793 14.8291H15.3183L16.3776 20.7386" stroke="white" stroke-width="0.7" stroke-miterlimit="10" stroke-linecap="round" stroke-linejoin="round"/>
<path d="M12.2062 18.5401C11.4099 21.0895 8.69265 22.5139 6.14331 21.7104C3.59397 20.9141 2.16958 18.1968 2.9731 15.6475C3.76931 13.0982 6.4866 11.6737 9.03594 12.4772C11.5853 13.2734 13.0024 15.9908 12.2062 18.5401Z" stroke="white" stroke-width="0.7" stroke-miterlimit="10" stroke-linecap="round" stroke-linejoin="round"/>
<path d="M4.13374 13.7194L2.75314 10.2861H1" stroke="white" stroke-width="0.7" stroke-miterlimit="10" stroke-linecap="round" stroke-linejoin="round"/>
</svg>
