<svg width="13" height="11" viewBox="0 0 13 11" fill="none" xmlns="http://www.w3.org/2000/svg">
<g clip-path="url(#clip0)">
<path d="M4.30546 10.7161C8.72089 10.7161 11.1352 6.85917 11.1352 3.51651C11.1352 3.40632 11.1352 3.29612 11.1302 3.19117C11.5981 2.83434 12.0063 2.3883 12.3299 1.87929C11.9018 2.0787 11.4388 2.21513 10.951 2.2781C11.4488 1.96325 11.8271 1.46999 12.0063 0.877022C11.5434 1.16563 11.0307 1.37553 10.4831 1.49098C10.045 0.997714 9.42278 0.693359 8.73085 0.693359C7.40672 0.693359 6.33148 1.82682 6.33148 3.22265C6.33148 3.42206 6.35139 3.61622 6.3962 3.79988C4.40004 3.69493 2.63287 2.68741 1.44812 1.15514C1.24403 1.52771 1.12456 1.96325 1.12456 2.42503C1.12456 3.30137 1.54768 4.078 2.19481 4.52928C1.80156 4.51879 1.43319 4.40334 1.10962 4.21443C1.10962 4.22493 1.10962 4.23542 1.10962 4.24592C1.10962 5.47383 1.93596 6.49185 3.03609 6.72799C2.83697 6.78571 2.62292 6.81719 2.40389 6.81719C2.24957 6.81719 2.10023 6.80145 1.95089 6.76997C2.25455 7.77749 3.14062 8.50689 4.19097 8.52788C3.36961 9.20481 2.3342 9.60886 1.20918 9.60886C1.01504 9.60886 0.82588 9.59837 0.636719 9.57213C1.68706 10.2963 2.95146 10.7161 4.30546 10.7161Z" fill="white"/>
</g>
<defs>
<clipPath id="clip0">
<rect width="11.6932" height="10.0227" fill="white" transform="translate(0.636719 0.693359)"/>
</clipPath>
</defs>
</svg>
