<svg width="41" height="13" viewBox="0 0 41 13" fill="none" xmlns="http://www.w3.org/2000/svg">
<path d="M17.4302 8.61792L17.9212 10.0419L18.6332 12.0551H21.5547L19.8362 7.61133C19.0751 7.97959 18.2649 8.32331 17.4302 8.61792Z" fill="white"/>
<path d="M24.3795 2.1123C22.7346 3.02068 21.0406 4.29733 19.0274 5.57399C18.3154 6.0159 17.5789 6.45782 16.7932 6.87519C14.731 7.95543 12.3004 8.93747 9.28064 9.55125V9.74766C18.8801 9.20753 24.134 4.29734 28.3568 2.35781C33.3652 0.0745627 36.9496 0.688338 38.2999 0.884746V0.712889C38.2999 0.712889 36.0903 0.00090983 32.9969 0.00090983C30.4681 -0.0236412 27.3747 0.442828 24.3795 2.1123Z" fill="#3CB54A"/>
<path d="M0 1.44922H2.67606V7.68517C2.67606 9.42829 3.38804 10.0421 4.59104 10.0421C5.32757 10.0421 5.79404 9.96842 6.2605 9.89476V1.44922H8.93656V11.7115C8.02818 11.9816 5.94134 12.2517 4.59104 12.2517C2.13594 12.2517 0 11.2942 0 8.24985V1.44922Z" fill="white"/>
<path d="M35.6963 12.0799H33.0203V1.52299C33.9041 1.37568 35.3035 1.25293 36.482 1.25293C39.1089 1.25293 40.9993 2.48048 40.9993 5.18109C40.9993 7.95535 38.8634 8.9865 36.6293 8.9865C36.3101 8.9865 35.8927 8.96194 35.6718 8.96194V12.0799H35.6963ZM35.6963 6.6787C35.8191 6.70325 36.1873 6.70325 36.5065 6.70325C37.5867 6.70325 38.3233 6.26133 38.3233 5.15654C38.3233 4.02719 37.464 3.60983 36.5065 3.60983C36.2855 3.60983 35.9173 3.63438 35.6963 3.65893V6.6787Z" fill="white"/>
<path d="M19.0278 5.54924C18.3158 5.99115 17.5792 6.43307 16.7936 6.85044L15.8116 4.10073L12.89 12.0798H10.0912L14.2158 1.44922H17.4074L19.0278 5.54924Z" fill="white"/>
<path d="M27.5698 12.0798H24.9183V3.78156H21.7267V1.44922H30.7369V3.78156H27.5698V12.0798Z" fill="white"/>
</svg>
