<svg width="15" height="16" viewBox="0 0 15 16" fill="none" xmlns="http://www.w3.org/2000/svg">
<path fill-rule="evenodd" clip-rule="evenodd" d="M7.55593 2.89469C7.55593 2.89268 7.55594 2.89068 7.55594 2.88867C7.55594 2.8866 7.55593 2.88453 7.55593 2.88246C7.55593 2.88453 7.55593 2.8866 7.55593 2.88867C7.55593 2.89068 7.55593 2.89268 7.55593 2.89469ZM7.55594 0.888672C7.55593 0.888672 7.55593 0.888672 7.55593 0.888672C4.97866 0.888672 2.8893 2.97791 2.8893 5.5553V7.41394C2.8893 7.46112 2.88856 7.5082 2.88709 7.55518C2.88649 7.55513 2.88588 7.55506 2.88528 7.55499C2.88394 7.55484 2.8826 7.55469 2.88125 7.55469C2.86077 8.21199 2.69868 8.85106 2.41093 9.4274C2.15734 9.92984 1.80785 10.3859 1.37432 10.7693C1.35371 10.7873 1.33291 10.805 1.31192 10.8226C1.28188 10.8479 1.25331 10.8743 1.22624 10.9019C1.07081 11.0586 0.964141 11.255 0.916716 11.4681C0.899319 11.5461 0.889926 11.6263 0.888971 11.7075C0.887978 11.7898 0.895633 11.8733 0.912469 11.9567C0.912961 11.9591 0.91346 11.9615 0.913967 11.964C0.915948 11.9736 0.918052 11.9831 0.920278 11.9925C0.923458 12.0061 0.926885 12.0197 0.93056 12.0333C1.07192 12.5553 1.58791 12.8887 2.12929 12.8887H2.1326H12.9793H12.9826C13.524 12.8887 14.0399 12.5553 14.1813 12.0333C14.1849 12.0202 14.1882 12.007 14.1913 11.9938C14.1936 11.9839 14.1958 11.974 14.1979 11.964C14.1984 11.9615 14.1989 11.9591 14.1994 11.9567C14.2164 11.8725 14.224 11.7884 14.2229 11.7054C14.2186 11.4026 14.0974 11.1154 13.8856 10.9019C13.8586 10.8743 13.83 10.8479 13.7999 10.8226C13.779 10.805 13.7582 10.7873 13.7375 10.7693C13.304 10.3859 12.9545 9.9298 12.7009 9.42734C12.4132 8.85102 12.2511 8.21197 12.2306 7.55469C12.2287 7.55469 12.2267 7.55501 12.2248 7.55518C12.2233 7.50821 12.2226 7.46112 12.2226 7.41394V5.5553C12.2226 2.97791 10.1332 0.888672 7.55594 0.888672ZM7.55595 15.5553C8.76334 15.5553 9.77335 14.6946 10.0053 13.5553H5.1066C5.33866 14.6946 6.34867 15.5553 7.55595 15.5553Z" fill="white"/>
</svg>
