<svg width="36" height="13" viewBox="0 0 36 13" fill="none" xmlns="http://www.w3.org/2000/svg">
<path d="M15.2882 11.8427H12.4045L14.1896 0.216797H17.0734L15.2882 11.8427Z" fill="white"/>
<path d="M9.97863 0.216797L7.23222 8.20809L6.9118 6.47504L5.95056 1.25181C5.95056 1.25181 5.83612 0.216797 4.57735 0.216797H0.0457735L0 0.409358C0 0.409358 1.39609 0.72227 2.99817 1.73322L5.49282 11.8427H8.49099L13.0683 0.216797H9.97863Z" fill="white"/>
<path d="M32.6139 11.8427H35.2458L32.9343 0.216797H30.6227C29.547 0.216797 29.2953 1.08332 29.2953 1.08332L25.0155 11.8427H28.0136L28.6087 10.1096H32.2706L32.6139 11.8427ZM29.4326 7.72669L30.9431 3.36999L31.7899 7.72669H29.4326Z" fill="white"/>
<path d="M25.2444 3.00877L25.6563 0.505474C25.6563 0.505474 24.3975 0 23.0701 0C21.6511 0 18.2639 0.649895 18.2639 3.85123C18.2639 6.86 22.2462 6.88407 22.2462 8.4727C22.2462 10.0613 18.6758 9.77249 17.5086 8.76154L17.0738 11.3611C17.0738 11.3611 18.3554 12.011 20.3237 12.011C22.292 12.011 25.2444 10.9519 25.2444 8.03944C25.2444 5.0066 21.2392 4.74182 21.2392 3.41796C21.2163 2.11818 24.0085 2.28667 25.2444 3.00877Z" fill="white"/>
</svg>
