<svg width="17" height="17" viewBox="0 0 17 17" fill="none" xmlns="http://www.w3.org/2000/svg">
<path fill-rule="evenodd" clip-rule="evenodd" d="M14.5169 2.47126C12.9224 0.876246 10.7964 0 8.53246 0C3.87064 0 0.073031 3.77957 0.0689737 8.41923C0.0689737 9.90522 0.458473 11.3508 1.1969 12.6309L0 16.9959L4.48735 15.8249C5.72482 16.4952 7.11647 16.8506 8.53246 16.8506H8.53652C13.1983 16.8506 16.9959 13.071 17 8.42731C16.9959 6.17814 16.1155 4.06223 14.5169 2.47126ZM8.53246 15.4252C7.26659 15.4252 6.02912 15.086 4.94988 14.448L4.69427 14.2945L2.0327 14.9891L2.74272 12.4047L2.57637 12.1382C1.87041 11.0237 1.50119 9.73562 1.50119 8.41519C1.50119 4.56294 4.65776 1.42138 8.53652 1.42138C10.415 1.42138 12.18 2.15225 13.5107 3.47268C14.8375 4.79714 15.5678 6.55368 15.5678 8.42327C15.5637 12.2876 12.4072 15.4252 8.53246 15.4252ZM12.3909 10.1838C12.18 10.0788 11.1413 9.57006 10.9465 9.49738C10.7518 9.42873 10.6098 9.39239 10.4718 9.60237C10.3298 9.81234 9.92411 10.2888 9.80239 10.4261C9.68067 10.5674 9.55489 10.5836 9.34391 10.4786C9.13294 10.3736 8.45131 10.1515 7.64391 9.43277C7.01504 8.87553 6.59308 8.18503 6.4673 7.97505C6.34558 7.76508 6.45513 7.65201 6.56062 7.54702C6.65394 7.45415 6.7716 7.30071 6.87709 7.17957C6.98258 7.05843 7.01909 6.96959 7.08807 6.82826C7.15704 6.68693 7.12458 6.56579 7.07184 6.4608C7.01909 6.35581 6.59714 5.31805 6.41862 4.8981C6.24821 4.48622 6.07375 4.54275 5.94391 4.53871C5.8222 4.53064 5.68019 4.53064 5.53819 4.53064C5.39618 4.53064 5.16897 4.58313 4.97422 4.79311C4.77947 5.00308 4.2358 5.51187 4.2358 6.54964C4.2358 7.5874 4.99451 8.58479 5.1 8.72612C5.20549 8.86745 6.58902 10.9914 8.71098 11.904C9.21408 12.1221 9.60764 12.2513 9.91599 12.3482C10.4232 12.5097 10.8816 12.4855 11.2468 12.433C11.6525 12.3724 12.4964 11.9242 12.6749 11.4316C12.8494 10.9389 12.8494 10.519 12.7967 10.4302C12.7439 10.3413 12.6019 10.2888 12.3909 10.1838Z" fill="white"/>
</svg>
