<svg width="13" height="14" viewBox="0 0 13 14" fill="none" xmlns="http://www.w3.org/2000/svg">
<path d="M0 13.0865L0.896263 9.72701C0.345182 8.74404 0.0514744 7.62732 0.0545023 6.48571C0.0545023 2.90846 2.88863 0 6.37074 0C8.06031 0 9.64694 0.675011 10.8369 1.90061C12.0299 3.12621 12.687 4.75619 12.6839 6.48882C12.6839 10.0661 9.84981 12.9745 6.36771 12.9745H6.36468C5.30794 12.9745 4.26936 12.7008 3.34585 12.1844L0 13.0865ZM3.5033 11.0117L3.69406 11.1299C4.49948 11.6214 5.423 11.8796 6.36468 11.8827H6.36771C9.25937 11.8827 11.6151 9.46571 11.6151 6.49193C11.6151 5.0517 11.0701 3.69857 10.0799 2.67827C9.0898 1.65798 7.76963 1.09806 6.36771 1.09806C3.47302 1.09806 1.1173 3.51504 1.1173 6.48882C1.1173 7.506 1.39284 8.4983 1.9197 9.35684L2.04384 9.56214L1.51396 11.5499L3.5033 11.0117Z" fill="white"/>
<path d="M0.22113 12.8591L1.08711 9.61469C0.554201 8.66594 0.272605 7.58654 0.272605 6.48537C0.272605 3.03255 3.00984 0.223633 6.3678 0.223633C7.99985 0.223633 9.52894 0.876869 10.6796 2.05892C11.8302 3.24096 12.463 4.81495 12.463 6.48848C12.463 9.94131 9.72576 12.7502 6.3678 12.7502H6.36477C5.34436 12.7502 4.34212 12.4858 3.45192 11.9881L0.22113 12.8591Z" fill="#0B2343"/>
<path d="M0 13.0865L0.896263 9.72701C0.345182 8.74404 0.0514744 7.62732 0.0545023 6.48571C0.0545023 2.90846 2.88863 0 6.37074 0C8.06031 0 9.64694 0.675011 10.8369 1.90061C12.0299 3.12621 12.687 4.75619 12.6839 6.48882C12.6839 10.0661 9.84981 12.9745 6.36771 12.9745H6.36468C5.30794 12.9745 4.26936 12.7008 3.34585 12.1844L0 13.0865ZM3.5033 11.0117L3.69406 11.1299C4.49948 11.6214 5.423 11.8796 6.36468 11.8827H6.36771C9.25937 11.8827 11.6151 9.46571 11.6151 6.49193C11.6151 5.0517 11.0701 3.69857 10.0799 2.67827C9.0898 1.65798 7.76963 1.09806 6.36771 1.09806C3.47302 1.09806 1.1173 3.51504 1.1173 6.48882C1.1173 7.506 1.39284 8.4983 1.9197 9.35684L2.04384 9.56214L1.51396 11.5499L3.5033 11.0117Z" fill="url(#paint0_linear)"/>
<path fill-rule="evenodd" clip-rule="evenodd" d="M4.79156 3.7733C4.67347 3.50268 4.54932 3.49646 4.43729 3.49334C4.34645 3.49023 4.24047 3.49023 4.1345 3.49023C4.02852 3.49023 3.85896 3.53067 3.71362 3.69243C3.56828 3.85418 3.16254 4.24612 3.16254 5.04556C3.16254 5.84189 3.72876 6.61333 3.80748 6.7222C3.88621 6.83108 4.90056 8.52016 6.50233 9.17029C7.83461 9.71154 8.10712 9.60267 8.39477 9.57467C8.68545 9.54667 9.32737 9.18273 9.4606 8.80323C9.5908 8.42373 9.5908 8.10022 9.55144 8.03179C9.51207 7.96335 9.4061 7.92291 9.24865 7.84204C9.09119 7.76116 8.31605 7.36922 8.17071 7.31323C8.02537 7.26035 7.91939 7.23235 7.81644 7.3941C7.71046 7.55586 7.40767 7.9198 7.31684 8.02868C7.226 8.13755 7.13213 8.14999 6.97468 8.06911C6.81723 7.98824 6.30854 7.81715 5.70599 7.26346C5.23666 6.83419 4.91873 6.30226 4.82789 6.14051C4.73705 5.97876 4.81881 5.89166 4.89753 5.81078C4.96717 5.73924 5.05498 5.62103 5.13371 5.52771C5.21243 5.43439 5.23969 5.36596 5.29116 5.25708C5.34264 5.14821 5.31841 5.05489 5.27905 4.97402C5.23969 4.89625 4.93387 4.0937 4.79156 3.7733Z" fill="white"/>
<defs>
<linearGradient id="paint0_linear" x1="6.34269" y1="13.0874" x2="6.34269" y2="-0.000982962" gradientUnits="userSpaceOnUse">
<stop stop-color="#F9F9F9"/>
<stop offset="1" stop-color="white"/>
</linearGradient>
</defs>
</svg>
