<svg width="14" height="11" viewBox="0 0 14 11" fill="none" xmlns="http://www.w3.org/2000/svg">
<g clip-path="url(#clip0)">
<path d="M9.52205 10.7158C9.58145 10.6266 9.6646 10.6776 9.72399 10.6776C10.508 10.6393 11.292 10.6138 12.0641 10.5118C13.1213 10.3715 13.644 9.83596 13.8103 8.70107C14.0122 7.23464 14.0241 5.75546 13.9528 4.27628C13.9291 3.68971 13.8816 3.10314 13.7747 2.52932C13.6084 1.5857 13.0619 1.03738 12.1829 0.92262C10.7218 0.731346 9.26072 0.718595 7.78775 0.705843C6.29102 0.693092 4.78242 0.731346 3.28569 0.833359C2.9412 0.858862 2.6086 0.897117 2.27599 0.960875C1.55139 1.10114 1.0406 1.62396 0.886173 2.4018C0.755507 3.02663 0.71987 3.65145 0.684234 4.27628C0.684234 4.34004 0.71987 4.4293 0.636719 4.48031C0.636719 5.29641 0.636719 6.12526 0.636719 6.94136C0.707991 6.99236 0.672355 7.06887 0.684234 7.14538C0.71987 7.6937 0.755507 8.25477 0.850537 8.80309C1.01684 9.82321 1.55139 10.3843 2.51357 10.5118C3.27381 10.6138 4.04593 10.6393 4.81805 10.6776C4.88932 10.6776 4.97248 10.6393 5.01999 10.7158C6.51672 10.7158 8.01345 10.7158 9.52205 10.7158ZM6.00593 7.84672C6.00593 6.40579 6.00593 5.01587 6.00593 3.57494C7.17005 4.28903 8.29854 4.99037 9.46266 5.70446C8.29854 6.4313 7.15817 7.13263 6.00593 7.84672Z" fill="white"/>
<path d="M6.00592 7.84668C7.15816 7.13259 8.29853 6.43126 9.46265 5.71717C8.29853 4.99033 7.15816 4.28899 6.00592 3.5749C6.00592 5.00308 6.00592 6.40575 6.00592 7.84668Z" fill="#004990"/>
</g>
<defs>
<clipPath id="clip0">
<rect width="13.3636" height="10.0227" fill="white" transform="matrix(1 0 0 -1 0.636719 10.7158)"/>
</clipPath>
</defs>
</svg>
